<svg xmlns="http://www.w3.org/2000/svg" viewBox="0 0 512 512">
  <defs>
    <linearGradient id="bg" x1="64" y1="64" x2="448" y2="448">
      <stop stop-color="#ff4f9a"/>
      <stop offset="0.48" stop-color="#ff9f74"/>
      <stop offset="1" stop-color="#b987ff"/>
    </linearGradient>
    <filter id="shadow" x="-20%" y="-20%" width="140%" height="140%">
      <feDropShadow dx="0" dy="18" stdDeviation="24" flood-color="#7a244f" flood-opacity="0.24"/>
    </filter>
  </defs>
  <rect width="512" height="512" rx="118" fill="url(#bg)"/>
  <circle cx="380" cy="132" r="62" fill="#fff4fb" opacity="0.48"/>
  <circle cx="126" cy="394" r="86" fill="#fff4fb" opacity="0.22"/>
  <path filter="url(#shadow)" fill="#fff9fc" d="M118 173c0-22 18-40 40-40h196c22 0 40 18 40 40v188c0 22-18 40-40 40H158c-22 0-40-18-40-40V173Z"/>
  <path fill="#e94683" d="M174 179h164c10 0 18 8 18 18v126c0 10-8 18-18 18H174c-10 0-18-8-18-18V197c0-10 8-18 18-18Z" opacity="0.14"/>
  <path fill="#e94683" d="M256 337c-8-7-78-49-78-101 0-30 23-53 52-53 15 0 28 7 36 18 8-11 21-18 36-18 29 0 52 23 52 53 0 52-70 94-78 101a30 30 0 0 1-20 0Z"/>
  <path fill="#fff" d="M206 251c0-16 12-28 28-28 8 0 15 4 20 10 5-6 12-10 20-10 16 0 28 12 28 28 0 27-35 51-48 59-13-8-48-32-48-59Z" opacity="0.92"/>
</svg>
